<?xml version="1.0" standalone="yes"?>
<svg xmlns="http://www.w3.org/2000/svg" width="432" height="286">
<path style="fill:#030303; stroke:none;" d="M0 0L0 286L432 286L432 0L0 0z"/>
<path style="fill:#f5696a; stroke:none;" d="M193 3L196 1L193 3M183.333 3.66666L183.667 4.33334L183.333 3.66666z"/>
<path style="fill:#0951a6; stroke:none;" d="M190 4L190 5L193 5L190 4z"/>
<path style="fill:#06bbfe; stroke:none;" d="M184 100L184 49C184 38.7924 185.053 27.6023 181 18L190 18L186.715 40L186 108C172.175 108 169.137 99.6141 161.72 89C150.633 73.1339 139.825 57.0435 129 41L127 41C124.349 45.6013 119.994 49.8451 118.51 55C114.754 68.0442 116.119 95.8488 122 108L113 108C117.808 92.8331 116 75.724 116 60C112.169 62.8768 110.863 69.5665 109.228 74C103.425 89.7386 102.305 108.524 105.081 125C114.903 183.301 172.713 223.706 231 210.349C254.273 205.015 276.158 192.096 290.764 173C295.082 167.355 301.848 159.292 302 152C306.655 148.814 307.74 141.21 309.151 136C313.176 121.138 313.647 103.232 311.079 88C301.599 31.7443 245.673 -3.08224 191 4.72916C175.586 6.93149 147.116 15.5818 138.658 30.0401C135.556 35.3434 143.827 43.8599 146.72 48C155.074 59.955 163.213 72.0615 171.59 84C175.217 89.1701 178.633 96.5834 184 100z"/>
<path style="fill:#0951a6; stroke:none;" d="M223.667 4.33334L224.333 4.66666L223.667 4.33334z"/>
<path style="fill:#f5696a; stroke:none;" d="M233 4L234 5L233 4z"/>
<path style="fill:#0951a6; stroke:none;" d="M184.667 5.33334L185.333 5.66666L184.667 5.33334M230.667 5.33334L231.333 5.66666L230.667 5.33334M234.333 5.66666L234.667 6.33334L234.333 5.66666z"/>
<path style="fill:#f5696a; stroke:none;" d="M174.667 6.33334L175.333 6.66666L174.667 6.33334z"/>
<path style="fill:#0951a6; stroke:none;" d="M181 6L182 7L181 6z"/>
<path style="fill:#f5696a; stroke:none;" d="M171 7L169 8L169 9L171 7z"/>
<path style="fill:#0951a6; stroke:none;" d="M177 7L178 8L177 7M238 7L239 8L238 7M174 8L175 9L174 8M241 8L242 9L241 8z"/>
<path style="fill:#f5696a; stroke:none;" d="M165.333 9.66666L165.667 10.3333L165.333 9.66666z"/>
<path style="fill:#0951a6; stroke:none;" d="M172 9L173 10L172 9z"/>
<path style="fill:#f5696a; stroke:none;" d="M161.333 11.6667L161.667 12.3333L161.333 11.6667z"/>
<path style="fill:#0951a6; stroke:none;" d="M167 11L168 12L167 11M248 11L249 12L248 11M165 12L166 13L165 12M162.667 13.3333L163.333 13.6667L162.667 13.3333M253 13L254 14L253 13z"/>
<path style="fill:#f5696a; stroke:none;" d="M155.667 14.3333L156.333 14.6667L155.667 14.3333z"/>
<path style="fill:#0951a6; stroke:none;" d="M160 14L161 15L160 14M255 14L256 15L255 14M158 15L159 16L158 15M257 15L258 16L257 15M259 16L260 17L259 16M155 17L156 18L155 17M182 17L181 19L182 17z"/>
<path style="fill:#f69390; stroke:none;" d="M183 17L184 18L183 17z"/>
<path style="fill:#0951a6; stroke:none;" d="M117 18C118.134 24.8216 122.49 33.4202 130 34C130.687 24.1882 127.452 18.0369 117 18z"/>
<path style="fill:#f5696a; stroke:none;" d="M149 18L150 19L149 18z"/>
<path style="fill:#0951a6; stroke:none;" d="M153 18L154 19L153 18z"/>
<path style="fill:#030303; stroke:none;" d="M182 18L185 55L186 55L189 18L182 18z"/>
<path style="fill:#0951a6; stroke:none;" d="M189 18L190 19L189 18M262 18L263 19L262 18z"/>
<path style="fill:#030303; stroke:none;" d="M121 19L125 22L121 19z"/>
<path style="fill:#0951a6; stroke:none;" d="M152 19L153 20L152 19z"/>
<path style="fill:#f5696a; stroke:none;" d="M269 19L269 21L271 21L269 19z"/>
<path style="fill:#0951a6; stroke:none;" d="M150 20L151 21L150 20z"/>
<path style="fill:#f5696a; stroke:none;" d="M182 21L183 22L182 21z"/>
<path style="fill:#0951a6; stroke:none;" d="M188 21L189 22L188 21M267 21L268 22L267 21M147 22L148 23L147 22M268 22L269 23L268 22M146 23L147 24L146 23M270 23L271 24L270 23z"/>
<path style="fill:#f5696a; stroke:none;" d="M141 24L142 25L141 24z"/>
<path style="fill:#0951a6; stroke:none;" d="M187 24L187 27L188 27L187 24M271 24L272 25L271 24M143 25L144 26L143 25M275 27L276 28L275 27M183 28L184 29L183 28M276 28L277 29L276 28M277 29L278 30L277 29M278 30L279 31L278 30z"/>
<path style="fill:#f5696a; stroke:none;" d="M185 31L186 32L185 31z"/>
<path style="fill:#0951a6; stroke:none;" d="M136.333 32.6667L136.667 33.3333L136.333 32.6667z"/>
<path style="fill:#f69390; stroke:none;" d="M280 32L281 33L280 32z"/>
<path style="fill:#f5696a; stroke:none;" d="M283 32L284 33L283 32M137 34L138 35L137 34z"/>
<path style="fill:#0951a6; stroke:none;" d="M138 35L139 36L138 35z"/>
<path style="fill:#f5696a; stroke:none;" d="M184 35L184 87L185 87L185 52L184 35z"/>
<path style="fill:#0951a6; stroke:none;" d="M186 36L186 42L187 42L186 36z"/>
<path style="fill:#f5696a; stroke:none;" d="M287 36L288 37L287 36z"/>
<path style="fill:#0951a6; stroke:none;" d="M140 38L141 39L140 38M128 40L129 41L128 40z"/>
<path style="fill:#f69390; stroke:none;" d="M288 40L289 41L288 40z"/>
<path style="fill:#0951a6; stroke:none;" d="M129 41L130 42L129 41M142 41L143 42L142 41M289 41L290 42L289 41M125 43L124 45L125 43M130 43L131 44L130 43z"/>
<path style="fill:#f69390; stroke:none;" d="M125 44L126 45L125 44z"/>
<path style="fill:#0951a6; stroke:none;" d="M131 44L132 45L131 44M291 44L292 45L291 44z"/>
<path style="fill:#f5696a; stroke:none;" d="M293 44L294 45L293 44z"/>
<path style="fill:#0951a6; stroke:none;" d="M292 45L293 46L292 45z"/>
<path style="fill:#f5696a; stroke:none;" d="M294 45L295 46L294 45z"/>
<path style="fill:#0951a6; stroke:none;" d="M123 46L124 47L123 46M132 46L133 47L132 46z"/>
<path style="fill:#f5696a; stroke:none;" d="M295 46L296 47L295 46z"/>
<path style="fill:#0951a6; stroke:none;" d="M122 47L123 48L122 47M146 47L147 48L146 47M294 48L295 49L294 48M121 49L122 50L121 49M134 49L135 50L134 49M135 50L136 51L135 50z"/>
<path style="fill:#f5696a; stroke:none;" d="M297 50L298 51L297 50z"/>
<path style="fill:#0951a6; stroke:none;" d="M149 51L150 52L149 51M296 51L297 52L296 51M119 52L120 53L119 52M297 53L298 54L297 53M151 54L152 55L151 54M185 55L185 63L186 63L185 55M139 56L140 57L139 56M299 56L300 57L299 56z"/>
<path style="fill:#f5696a; stroke:none;" d="M301 56L302 57L301 56z"/>
<path style="fill:#0951a6; stroke:none;" d="M153 57L154 58L153 57M116 58L117 59L116 58z"/>
<path style="fill:#06bbfe; stroke:none;" d="M113 59L114 60L113 59z"/>
<path style="fill:#0951a6; stroke:none;" d="M115 59L116 60L115 59M141 59L142 60L141 59M117 60L117 80L118 80L117 60M155 60L156 61L155 60M302 61L303 62L302 61M113 62L114 63L113 62M143 62L144 63L143 62z"/>
<path style="fill:#030303; stroke:none;" d="M185 63L186 64L185 63z"/>
<path style="fill:#0951a6; stroke:none;" d="M225 63L226 64L225 63z"/>
<path style="fill:#030303; stroke:none;" d="M187 162C190.567 162 196.626 163.153 199.694 161.056C205.668 156.972 209.122 139.701 211.806 133C213.379 129.071 215.476 118.659 220 118L224.6 101L239 66L259 117L229 117L229 118C239.873 118 264.593 112.74 262 130L266.611 138L271 162L279 162C276.451 155.429 273.852 143.066 268 139L260.603 116L239 63C235.232 63.6205 228.739 61.81 225.818 64.6142C219.908 70.2869 217.03 84.4263 214 92C205.19 114.025 191.023 138.638 187 162z"/>
<path style="fill:#0951a6; stroke:none;" d="M230.667 63.3333L231.333 63.6667L230.667 63.3333M234 63L234 64L238 64L234 63M239 63L240 64L239 63z"/>
<path style="fill:#030303; stroke:none;" d="M116 64L117 65L116 64z"/>
<path style="fill:#0951a6; stroke:none;" d="M158 64L159 65L158 64M185 64L186 65L185 64M112 65L113 66L112 65M145 65L146 66L145 65z"/>
<path style="fill:#030303; stroke:none;" d="M185 65L185 73L186 73L185 65z"/>
<path style="fill:#0951a6; stroke:none;" d="M240 65L241 66L240 65M304 65L305 66L304 65z"/>
<path style="fill:#030303; stroke:none;" d="M116 66L117 95L113 107L113 108L121 108L116 66z"/>
<path style="fill:#0951a6; stroke:none;" d="M224 66L225 67L224 66z"/>
<path style="fill:#f5696a; stroke:none;" d="M238 66L239 67L238 66z"/>
<path style="fill:#0951a6; stroke:none;" d="M160 67L161 68L160 67z"/>
<path style="fill:#06bbfe; stroke:none;" d="M238 67L219 116L259 116C252.116 102.382 241.519 82.1405 240 67L238 67z"/>
<path style="fill:#f69390; stroke:none;" d="M111 68L112 69L111 68z"/>
<path style="fill:#0951a6; stroke:none;" d="M147 68L148 69L147 68M223 68L224 69L223 68M241 68L242 69L241 68M305 68L306 69L305 68M148 69L149 70L148 69M240 69L241 70L240 69z"/>
<path style="fill:#06bbfe; stroke:none;" d="M108 70L109 71L108 70z"/>
<path style="fill:#0951a6; stroke:none;" d="M110 70L111 71L110 70M162 70L163 71L162 70M236 70L237 71L236 70z"/>
<path style="fill:#f69390; stroke:none;" d="M240.333 70.6667L240.667 71.3333L240.333 70.6667z"/>
<path style="fill:#0951a6; stroke:none;" d="M242 70L243 71L242 70M149 71L150 72L149 71M222 71L223 72L222 71M109 73L110 74L109 73M164 73L165 74L164 73M185 73L185 83L186 83L185 73M221 73L222 74L221 73M235 73L236 74L235 73M241 73L242 74L241 73M243 73L244 74L243 73M307 74L308 75L307 74M108 75L109 76L108 75M152 75L153 76L152 75z"/>
<path style="fill:#f5696a; stroke:none;" d="M242 75L243 76L242 75z"/>
<path style="fill:#0951a6; stroke:none;" d="M244 75L245 76L244 75z"/>
<path style="fill:#f69390; stroke:none;" d="M242 76L243 77L242 76z"/>
<path style="fill:#0951a6; stroke:none;" d="M153 77L154 78L153 77M167 77L168 78L167 77M308 77L309 78L308 77M107.333 78.6667L107.667 79.3333L107.333 78.6667M154 78L155 79L154 78M219 78L220 79L219 78M233 78L234 79L233 78M245 78L246 79L245 78z"/>
<path style="fill:#f5696a; stroke:none;" d="M244.333 79.6667L244.667 80.3333L244.333 79.6667M116 80L116 88L117 88L116 80z"/>
<path style="fill:#0951a6; stroke:none;" d="M246 80L247 81L246 80M309 80L310 81L309 80M156 81L157 82L156 81M218 81L219 82L218 81M232 81L233 82L232 81z"/>
<path style="fill:#f5696a; stroke:none;" d="M312 81L313 82L312 81z"/>
<path style="fill:#0951a6; stroke:none;" d="M106 83L107 84L106 83M171 83L172 84L171 83z"/>
<path style="fill:#030303; stroke:none;" d="M185 83L185 93L186 93L185 83z"/>
<path style="fill:#0951a6; stroke:none;" d="M217 83L218 84L217 83M231 83L232 84L231 83M245 83L246 84L245 83M247 83L248 84L247 83M158 84L159 85L158 84M310 84L311 85L310 84M246 85L247 86L246 85M248 85L249 86L248 85M105.333 86.6667L105.667 87.3333L105.333 86.6667M173 86L174 87L173 86M160 87L161 88L160 87M184 87L186 96L184 87M118 88L118 92L119 92L118 88M215 88L216 89L215 88M229 88L230 89L229 88M249 88L250 89L249 88M248 89L249 90L248 89M311.333 89.6667L311.667 90.3333L311.333 89.6667z"/>
<path style="fill:#f5696a; stroke:none;" d="M116.333 90.6667L116.667 91.3333L116.333 90.6667z"/>
<path style="fill:#0951a6; stroke:none;" d="M162 90L163 91L162 90M176 90L177 91L176 90z"/>
<path style="fill:#f69390; stroke:none;" d="M248 90L249 91L248 90z"/>
<path style="fill:#0951a6; stroke:none;" d="M250 90L251 91L250 90M228 91L229 92L228 91M177 92L178 93L177 92M249.333 92.6667L249.667 93.3333L249.333 92.6667M213 93L214 94L213 93M227 93L228 94L227 93M251 93L252 94L251 93M104.333 94.6667L104.667 95.3333L104.333 94.6667M115.667 94.3333L116.333 94.6667L115.667 94.3333M165 94L166 95L165 94M250 94L251 95L250 94M252 95L253 96L252 95M180 96L181 97L180 96z"/>
<path style="fill:#f5696a; stroke:none;" d="M184 96L185 97L184 96z"/>
<path style="fill:#030303; stroke:none;" d="M185 96L186 97L185 96z"/>
<path style="fill:#0951a6; stroke:none;" d="M226 96L227 97L226 96M167 97L168 98L167 97M184.667 97.3333L185.333 97.6667L184.667 97.3333M181 98L182 99L181 98z"/>
<path style="fill:#f69390; stroke:none;" d="M184 98L185 99L184 98z"/>
<path style="fill:#030303; stroke:none;" d="M185 98L186 99L185 98z"/>
<path style="fill:#0951a6; stroke:none;" d="M211 98L212 99L211 98M225 98L226 99L225 98M253 98L254 99L253 98M119 99L119 102L120 102L119 99M184.667 99.3333L185.333 99.6667L184.667 99.3333M252 99L253 100L252 99M169 100L170 101L169 100M182 100L183 101L182 100z"/>
<path style="fill:#f69390; stroke:none;" d="M183 100L184 101L183 100z"/>
<path style="fill:#f5696a; stroke:none;" d="M184 100L185 101L184 100z"/>
<path style="fill:#030303; stroke:none;" d="M185 100L186 101L185 100z"/>
<path style="fill:#0951a6; stroke:none;" d="M210 100L211 101L210 100z"/>
<path style="fill:#f69390; stroke:none;" d="M252 100L253 101L252 100z"/>
<path style="fill:#0951a6; stroke:none;" d="M254 100L255 101L254 100M185 101L186 102L185 101M224 101L225 102L224 101M312 101L312 117L313 117L312 101M253.333 102.667L253.667 103.333L253.333 102.667M114 103L115 104L114 103M171 103L172 104L171 103M209 103L210 104L209 103M223 103L224 104L223 103M255 103L256 104L255 103z"/>
<path style="fill:#f5696a; stroke:none;" d="M114 104L115 105L114 104z"/>
<path style="fill:#0951a6; stroke:none;" d="M120 105L121 106L120 105M254 105L255 106L254 105M256 105L257 106L256 105M113.667 106.333L114.333 106.667L113.667 106.333M173 106L174 107L173 106z"/>
<path style="fill:#f5696a; stroke:none;" d="M175 106L176 107L175 106z"/>
<path style="fill:#0951a6; stroke:none;" d="M180 106L181 107L180 106M184 106L185 107L184 106M222 106L223 107L222 106M121 107L122 108L121 107M174 107L175 108L174 107M207 108L208 109L207 108M221 108L222 109L221 108M257 108L258 109L257 108M256.333 109.667L256.667 110.333L256.333 109.667M258 110L259 111L258 110M220 111L221 112L220 111z"/>
<path style="fill:#f69390; stroke:none;" d="M256 111L257 112L256 111z"/>
<path style="fill:#0951a6; stroke:none;" d="M177 113L177 114L182 114L177 113z"/>
<path style="fill:#030303; stroke:none;" d="M182 112C182.666 124.027 192.458 112.815 182 112z"/>
<path style="fill:#0951a6; stroke:none;" d="M187 112L188 113L187 112M171 113L174 115L174 114L171 113z"/>
<path style="fill:#030303; stroke:none;" d="M172 113L172 114L177 114L172 113z"/>
<path style="fill:#0951a6; stroke:none;" d="M205 113L206 114L205 113M219 113L220 114L219 113M257 113L258 114L257 113M259 113L260 114L259 113M168 114L171 116L171 115L168 114z"/>
<path style="fill:#030303; stroke:none;" d="M169 114L169 115L172 115L169 114z"/>
<path style="fill:#0951a6; stroke:none;" d="M188.333 114.667L188.667 115.333L188.333 114.667M258 114L259 115L258 114z"/>
<path style="fill:#030303; stroke:none;" d="M158 120L158 121L169 116L158 120z"/>
<path style="fill:#0951a6; stroke:none;" d="M166.667 116.333L167.333 116.667L166.667 116.333M220 118L217 118L217 119L258 119L258 118L229 118L229 117L259 117L229 116L220 118M162 117L163 118L162 117M164.667 117.333L165.333 117.667L164.667 117.333M181 117L183 119L183 117L181 117M187 117L188 118L187 117z"/>
<path style="fill:#030303; stroke:none;" d="M222 117L223 118L222 117M227 117L228 118L227 117z"/>
<path style="fill:#0951a6; stroke:none;" d="M261.333 117.667L261.667 118.333L261.333 117.667M163 118L164 119L163 118M203 118L204 119L203 118M259 118L260 119L259 118M276 118L276 120L285 120L285 118L276 118M161 119L162 120L161 119M273.333 119.667L273.667 120.333L273.333 119.667z"/>
<path style="fill:#030303; stroke:none;" d="M274.667 119.333L275.333 119.667L274.667 119.333M285 119L285 120L295 123L285 119z"/>
<path style="fill:#0951a6; stroke:none;" d="M159.667 120.333L160.333 120.667L159.667 120.333M260 120L261 121L260 120M262 120L263 121L262 120M271 120L268 122L268 123L271 120z"/>
<path style="fill:#030303; stroke:none;" d="M272 120L273 121L272 120z"/>
<path style="fill:#0951a6; stroke:none;" d="M289 120L290 121L289 120M104.333 121.667L104.667 122.333L104.333 121.667M155 124L159 121L155 124M216 121L217 122L216 121z"/>
<path style="fill:#030303; stroke:none;" d="M270 121L271 122L270 121z"/>
<path style="fill:#0951a6; stroke:none;" d="M291 121L292 122L291 121z"/>
<path style="fill:#030303; stroke:none;" d="M156 122L157 123L156 122z"/>
<path style="fill:#0951a6; stroke:none;" d="M261 122L262 123L261 122M293 122L294 123L293 122z"/>
<path style="fill:#f5696a; stroke:none;" d="M314.333 122.667L314.667 123.333L314.333 122.667z"/>
<path style="fill:#030303; stroke:none;" d="M154.333 123.667L154.667 124.333L154.333 123.667z"/>
<path style="fill:#0951a6; stroke:none;" d="M201 123L202 124L201 123M215 123L216 124L215 123z"/>
<path style="fill:#030303; stroke:none;" d="M266 125L269 123L266 125M295 123L299 127L295 123z"/>
<path style="fill:#0951a6; stroke:none;" d="M296 123L297 124L296 123M153 124L151 128L153 124M297 124L298 125L297 124z"/>
<path style="fill:#f69390; stroke:none;" d="M313 124L314 125L313 124z"/>
<path style="fill:#030303; stroke:none;" d="M152 125L153 126L152 125z"/>
<path style="fill:#0951a6; stroke:none;" d="M262 125L263 126L262 125M264 125L265 129L266 129L267 125L264 125M298 125L299 126L298 125z"/>
<path style="fill:#030303; stroke:none;" d="M151 126L152 127L151 126z"/>
<path style="fill:#0951a6; stroke:none;" d="M214 126L215 127L214 126M311 126L312 127L311 126M105.333 127.667L105.667 128.333L105.333 127.667z"/>
<path style="fill:#030303; stroke:none;" d="M150 127L146 134L150 127M299 127L301 132L302 132L299 127z"/>
<path style="fill:#0951a6; stroke:none;" d="M149 128L150 129L149 128M199 128L200 129L199 128M213 128L214 129L213 128M299 128L300 129L299 128M150 129L151 130L150 129z"/>
<path style="fill:#f69390; stroke:none;" d="M263 129L264 130L263 129z"/>
<path style="fill:#0951a6; stroke:none;" d="M301 129L302 130L301 129M149 130L150 131L149 130z"/>
<path style="fill:#030303; stroke:none;" d="M261 130L262 131L261 130z"/>
<path style="fill:#0951a6; stroke:none;" d="M264 130L265 131L264 130M266 130L267 131L266 130M147 131L148 132L147 131M198 131L199 132L198 131M212 131L213 132L212 131z"/>
<path style="fill:#030303; stroke:none;" d="M260 131L257 137L258 137L260 131z"/>
<path style="fill:#0951a6; stroke:none;" d="M310 131L311 132L310 131M106 132L107 133L106 132M260 132L261 133L260 132M301 132L302 146L303 146C303.606 141.209 305.379 135.333 301 132M147 133L148 134L147 133M197 133L198 134L197 133M211 133L212 134L211 133M267 133L268 134L267 133M145.667 134.333L146.333 134.667L145.667 134.333M259 134L260 135L259 134M309 134L310 135L309 134z"/>
<path style="fill:#030303; stroke:none;" d="M145 135L146 136L145 135z"/>
<path style="fill:#0951a6; stroke:none;" d="M257 135L258 136L257 135M107.333 136.667L107.667 137.333L107.333 136.667M144.667 136.333L145.333 136.667L144.667 136.333M210 136L211 137L210 136z"/>
<path style="fill:#030303; stroke:none;" d="M144 137L145 138L144 137M256 137L257 138L256 137z"/>
<path style="fill:#0951a6; stroke:none;" d="M266 137L267 138L266 137M269 137L268 139L270 139L269 137z"/>
<path style="fill:#f69390; stroke:none;" d="M302 137L302 140L303 140L302 137z"/>
<path style="fill:#0951a6; stroke:none;" d="M143 138L145 140L145 138L143 138M195 138L196 139L195 138M209 138L210 139L209 138M255.667 138.333L256.333 138.667L255.667 138.333M308 138L309 139L308 138z"/>
<path style="fill:#030303; stroke:none;" d="M143.333 139.667L143.667 140.333L143.333 139.667M255 139L256 140L255 139M254 140L255 141L254 140z"/>
<path style="fill:#0951a6; stroke:none;" d="M270 140L271 141L270 140M142.667 141.333L143.333 141.667L142.667 141.333M194 141L195 142L194 141M208 141L209 142L208 141M253.667 141.333L254.333 141.667L253.667 141.333M267 141L268 142L267 141z"/>
<path style="fill:#f5696a; stroke:none;" d="M309 141L310 142L309 141z"/>
<path style="fill:#0951a6; stroke:none;" d="M109.333 142.667L109.667 143.333L109.333 142.667z"/>
<path style="fill:#030303; stroke:none;" d="M142.333 142.667L142.667 143.333L142.333 142.667M253 142L254 143L253 142z"/>
<path style="fill:#0951a6; stroke:none;" d="M193 143L194 144L193 143M207 143L208 144L207 143z"/>
<path style="fill:#030303; stroke:none;" d="M252 143L253 144L252 143z"/>
<path style="fill:#0951a6; stroke:none;" d="M271.333 143.667L271.667 144.333L271.333 143.667z"/>
<path style="fill:#f69390; stroke:none;" d="M303.333 143.667L303.667 144.333L303.333 143.667z"/>
<path style="fill:#030303; stroke:none;" d="M141 144L141 147L142 147L141 144z"/>
<path style="fill:#0951a6; stroke:none;" d="M251.667 144.333L252.333 144.667L251.667 144.333M268.333 144.667L268.667 145.333L268.333 144.667M306 144L307 145L306 144M110 145L111 146L110 145z"/>
<path style="fill:#030303; stroke:none;" d="M251 145L248 150L251 145z"/>
<path style="fill:#0951a6; stroke:none;" d="M272 145L273 146L272 145M206 146L207 147L206 146M251 146L252 147L251 146z"/>
<path style="fill:#030303; stroke:none;" d="M302 146L303 147L302 146z"/>
<path style="fill:#0951a6; stroke:none;" d="M141 147L140 154L141 154L141 147M249 147L250 148L249 147M302 147L301 149L303 149L302 147M305 147L306 148L305 147M111 148L112 149L111 148M191 148L192 149L191 148M205 148L206 149L205 148M273 148L274 149L273 148M249 149L250 150L249 149z"/>
<path style="fill:#f69390; stroke:none;" d="M300 149L301 150L300 149z"/>
<path style="fill:#030303; stroke:none;" d="M301 149L302 150L301 149z"/>
<path style="fill:#0951a6; stroke:none;" d="M112 150L113 151L112 150M247.667 150.333L248.333 150.667L247.667 150.333M269.333 150.667L269.667 151.333L269.333 150.667M274 150L275 151L274 150M300.333 150.667L300.667 151.333L300.333 150.667M304 150L305 151L304 150M190 151L191 152L190 151M204 151L205 152L204 151z"/>
<path style="fill:#030303; stroke:none;" d="M247 151L236 168C240.309 164.438 246.812 156.756 247 151z"/>
<path style="fill:#0951a6; stroke:none;" d="M247 152L248 153L247 152M299 152L300 153L299 152z"/>
<path style="fill:#f69390; stroke:none;" d="M302 152L303 153L302 152z"/>
<path style="fill:#f5696a; stroke:none;" d="M306 152L307 153L306 152z"/>
<path style="fill:#0951a6; stroke:none;" d="M189 153L190 154L189 153M203 153L204 154L203 153M245 153L246 154L245 153M275 153L276 154L275 153M298 153L299 154L298 153M114 154L115 155L114 154M297 154L298 155L297 154M302 154L303 155L302 154M245 155L246 156L245 155M276 155L277 156L276 155M296 155L295 157L297 157L296 155M188 156L189 157L188 156M202 156L203 157L202 156M243 156L244 157L243 156M270 156L271 157L270 156M244 157L245 158L244 157M293 157L290 159L290 160L290 161L293 157z"/>
<path style="fill:#030303; stroke:none;" d="M294 157L295 158L294 157z"/>
<path style="fill:#0951a6; stroke:none;" d="M300 157L301 158L300 157M116 158L117 159L116 158M201 158L202 159L201 158M243 158L244 159L243 158M277 158L278 159L277 158M241 159L242 160L241 159z"/>
<path style="fill:#030303; stroke:none;" d="M291 159L292 160L291 159z"/>
<path style="fill:#0951a6; stroke:none;" d="M299 159L300 160L299 159M117 160L118 161L117 160z"/>
<path style="fill:#06bbfe; stroke:none;" d="M274 160L275 161L274 160z"/>
<path style="fill:#0951a6; stroke:none;" d="M275 160L276 161L275 160M278 160L279 161L278 160M283 161L283 162L288 162L283 161z"/>
<path style="fill:#030303; stroke:none;" d="M287 160L287 161L290 161L287 160z"/>
<path style="fill:#0951a6; stroke:none;" d="M140 161L141 165L142 165L140 161z"/>
<path style="fill:#f69390; stroke:none;" d="M141.333 161.667L141.667 162.333L141.333 161.667z"/>
<path style="fill:#0951a6; stroke:none;" d="M186 161L187 162L186 161M199 161L200 162L199 161M241 161L242 162L241 161M273 161L274 162L273 161M278 162L278 163L282 162L278 162M239 162L240 163L239 162M119 163L120 164L119 163M239 164L240 165L239 164M296 164L297 165L296 164M120 165L121 166L120 165z"/>
<path style="fill:#030303; stroke:none;" d="M141 165L142 173L143 173L141 165z"/>
<path style="fill:#0951a6; stroke:none;" d="M237 165L238 166L237 165M237 167L238 168L237 167M294 167L295 168L294 167M233 173L234 173L234 170L237 169L233 173M123 169L124 170L123 169M142 169L143 170L142 169M141 170L142 171L141 170z"/>
<path style="fill:#030303; stroke:none;" d="M234 170L235 171L234 170z"/>
<path style="fill:#0951a6; stroke:none;" d="M292 170L293 171L292 170z"/>
<path style="fill:#030303; stroke:none;" d="M233 171L234 172L233 171z"/>
<path style="fill:#0951a6; stroke:none;" d="M125 172L126 173L125 172M143 172L142 174L144 174L143 172z"/>
<path style="fill:#030303; stroke:none;" d="M232 172L229 177L232 172z"/>
<path style="fill:#f5696a; stroke:none;" d="M124 173L125 174L124 173z"/>
<path style="fill:#0951a6; stroke:none;" d="M126 173L127 174L126 173M231 173L232 174L231 173M290 173L291 174L290 173z"/>
<path style="fill:#030303; stroke:none;" d="M143 174L145 177L143 174z"/>
<path style="fill:#0951a6; stroke:none;" d="M230 174L231 175L230 174M289 174L290 175L289 174M144 175L145 176L144 175M229 175L230 176L229 175M288 175L289 176L288 175M144.667 177.333L145.333 177.667L144.667 177.333z"/>
<path style="fill:#030303; stroke:none;" d="M228 177L229 178L228 177M145 178L147 181L145 178M227 178L228 179L227 178z"/>
<path style="fill:#0951a6; stroke:none;" d="M286 178L287 179L286 178z"/>
<path style="fill:#030303; stroke:none;" d="M226 179L227 180L226 179z"/>
<path style="fill:#0951a6; stroke:none;" d="M285 179L286 180L285 179z"/>
<path style="fill:#030303; stroke:none;" d="M225 180L221 185L225 180z"/>
<path style="fill:#0951a6; stroke:none;" d="M284 180L285 181L284 180z"/>
<path style="fill:#030303; stroke:none;" d="M147 181C152.076 191.668 163.376 199.282 175 201L175 200C162.557 197.044 156.121 188.964 147 181z"/>
<path style="fill:#0951a6; stroke:none;" d="M225 181L226 182L225 181M147 182L148 183L147 182M224 182L225 183L224 182M282 182L283 183L282 182M149 183L150 184L149 183M223 183L224 184L223 183M281 183L282 184L281 183M148 184L149 185L148 184M150 184L151 185L150 184M222 184L223 185L222 184M149 185L150 186L149 185M218 186L218 187L221 187L218 186z"/>
<path style="fill:#030303; stroke:none;" d="M220 185L221 186L220 185M219 186L220 187L219 186z"/>
<path style="fill:#0951a6; stroke:none;" d="M277 186L278 187L277 186z"/>
<path style="fill:#030303; stroke:none;" d="M216 189L219 188L216 189z"/>
<path style="fill:#0951a6; stroke:none;" d="M276 187L277 188L276 187M153 188L154 189L153 188M217 188L218 189L217 188M275 188L276 189L275 188M212 192L213 193L217 189L212 192M274 189L275 190L274 189z"/>
<path style="fill:#030303; stroke:none;" d="M214 190L213 192L214 190z"/>
<path style="fill:#0951a6; stroke:none;" d="M273 190L274 191L273 190M144 191L145 192L144 191M271 191L272 192L271 191M146 192L147 193L146 192M156 192L157 193L156 192M158 192L159 193L158 192z"/>
<path style="fill:#030303; stroke:none;" d="M207 196L213 193L207 196z"/>
<path style="fill:#0951a6; stroke:none;" d="M270 192L271 193L270 192M157 193L158 194L157 193M159 193L160 194L159 193M211 193L212 194L211 193M158 194L159 195L158 194M161 194L162 195L161 194M209.667 194.333L210.333 194.667L209.667 194.333M267 194L268 195L267 194M150 195L151 196L150 195M200 198L200 199L200 200L208 196L200 198M208 195L209 196L208 195M266 195L267 196L266 195M264 196L265 197L264 196M153 197L154 198L153 197M164 197L165 198L164 197M167 197L168 198L167 197z"/>
<path style="fill:#f5696a; stroke:none;" d="M150 198L151 199L150 198z"/>
<path style="fill:#0951a6; stroke:none;" d="M169 198L170 199L169 198z"/>
<path style="fill:#030303; stroke:none;" d="M201 198L202 199L201 198z"/>
<path style="fill:#0951a6; stroke:none;" d="M261 198L262 199L261 198M156 199L157 200L156 199M168 199L169 200L168 199M172.667 199.333L173.333 199.667L172.667 199.333M196 199L199 201L199 200L196 199z"/>
<path style="fill:#030303; stroke:none;" d="M197 199L197 200L200 200L197 199z"/>
<path style="fill:#0951a6; stroke:none;" d="M259.667 199.333L260.333 199.667L259.667 199.333M158 200L159 201L158 200M170.667 200.333L171.333 200.667L170.667 200.333M175 200L176 201L175 200z"/>
<path style="fill:#030303; stroke:none;" d="M176 200L177 201L176 200z"/>
<path style="fill:#0951a6; stroke:none;" d="M177 200L177 202L195 202L195 200L177 200z"/>
<path style="fill:#030303; stroke:none;" d="M195.667 200.333L196.333 200.667L195.667 200.333z"/>
<path style="fill:#0951a6; stroke:none;" d="M258 200L259 201L258 200M160 201L161 202L160 201M255 201L256 202L255 201M254 202L255 203L254 202M165 203L166 204L165 203M251 203L252 204L251 203M167 204L168 205L167 204M249 204L250 205L249 204M170 205L171 206L170 205M246 205L247 206L246 205M244 206L245 207L244 206z"/>
<path style="fill:#f5696a; stroke:none;" d="M169.667 207.333L170.333 207.667L169.667 207.333z"/>
<path style="fill:#0951a6; stroke:none;" d="M241 207L242 208L241 207M177 208L178 209L177 208M238 208L238 209L241 209L238 208M181 209L182 210L181 209M234.667 209.333L235.333 209.667L234.667 209.333M184 210L185 211L184 210M230 210L230 211L233 211L230 210M225 211L226 212L225 211M200 212L200 213L213 213L200 212M222 212L223 213L222 212z"/>
<path style="fill:#f5696a; stroke:none;" d="M160 239L161 240L160 239z"/>
<path style="fill:#0951a6; stroke:none;" d="M398.667 239.333L399.333 239.667L398.667 239.333z"/>
<path style="fill:#f5696a; stroke:none;" d="M15 240L14 243L8 247L7 248C4.47727 258.597 3.72237 267.784 5 279L14 279L14 267L18 267L17 264L20 264L20 279L32 279L31 242L28 243L28 240L15 240z"/>
<path style="fill:#f69390; stroke:none;" d="M16 240L16 241L19 241L16 240M20 240L21 241L20 240M22 240L22 241L25 241L22 240z"/>
<path style="fill:#f5696a; stroke:none;" d="M38 240L39 241L38 240z"/>
<path style="fill:#f69390; stroke:none;" d="M38 243L55 256C52.8271 252.251 41.8371 237.766 38 243z"/>
<path style="fill:#f5696a; stroke:none;" d="M40 240L41 241L40 240z"/>
<path style="fill:#f69390; stroke:none;" d="M71 240L59 253L74 242L71 240z"/>
<path style="fill:#f5696a; stroke:none;" d="M73 240L74 241L73 240z"/>
<path style="fill:#f69390; stroke:none;" d="M80 240L80 244L81 244L81 241L86 241L80 240z"/>
<path style="fill:#f5696a; stroke:none;" d="M79 243L81 279L90 279L89 240L79 243z"/>
<path style="fill:#f69390; stroke:none;" d="M89 240L90 279L81 279L81 271L80 271L80 280L91 281C91 270.819 95.1755 248.151 89 240z"/>
<path style="fill:#f5696a; stroke:none;" d="M90 240L91 241L90 240z"/>
<path style="fill:#f69390; stroke:none;" d="M97 240L97 252L98 252L100 240L97 240z"/>
<path style="fill:#f5696a; stroke:none;" d="M100 240L97 279L122 277L121 270C115.11 270.078 111.488 270.381 111 277L109 277L107 240L100 240z"/>
<path style="fill:#f69390; stroke:none;" d="M101 240L102 241L101 240M104 240L105 241L104 240M107 240L108 273L109 273C109 264.026 112.151 247.54 107 240M126 240L126 243L127 243L126 240z"/>
<path style="fill:#f5696a; stroke:none;" d="M127 243L126 243L126 241L125 241L126 252L130 249L132 250L132 243C139.452 247.696 137 270.768 137 279L146 279L146 243L149 243L152 248C153.003 257.244 156.435 241.753 157 240C151.651 240 127.984 238.504 127 243z"/>
<path style="fill:#f69390; stroke:none;" d="M129 240L129 241L135 241L129 240M138 240L138 241L143 241L138 240M144 240L144 241L148 241L144 240M162 240L162 243L163 243L164 240L162 240z"/>
<path style="fill:#f5696a; stroke:none;" d="M161 243C164.076 255.179 154.644 278.987 172 279L175 261L176 261C181.753 269.848 174.418 278.989 189 279L189 252L190 241L190 240L178 240L177 259L172 259L171 240L161 243z"/>
<path style="fill:#f69390; stroke:none;" d="M171 240L172 259L173 259L171 240z"/>
<path style="fill:#f5696a; stroke:none;" d="M172 240L173 241L172 240z"/>
<path style="fill:#f69390; stroke:none;" d="M179.667 240.333L180.333 240.667L179.667 240.333z"/>
<path style="fill:#f5696a; stroke:none;" d="M207 240L204 243L203 244L200 247L199 248C196.324 258.542 195.578 267.746 197 279L206 279L209 264L212 264L212 280L213 280L223 279L223 242L220 243L220 240L207 240z"/>
<path style="fill:#f69390; stroke:none;" d="M208 240L208 241L211 241L208 240M212 240L212 241L218 241L212 240z"/>
<path style="fill:#f5696a; stroke:none;" d="M230 240L231 279L242 279L243 260L244 260L246 264L248 279L257 279L257 267L258 267L258 279L259 279L258 266L249 263L250 259C257.464 258.431 256.999 253.25 257 247L258 247L258 257L259 257L258 246L256 247L252 240L230 240z"/>
<path style="fill:#f69390; stroke:none;" d="M231 240L231 241L234 241L231 240M235 240L236 241L235 240M239 240L239 241L242 241L239 240M244 240L245 241L244 240z"/>
<path style="fill:#f5696a; stroke:none;" d="M275 240L273 242L266 249L264 251L265 279L276 279L278 268L277 264C282.371 268.092 282 272.72 282 279L291 279L292 243L288 240L275 240z"/>
<path style="fill:#f69390; stroke:none;" d="M276 240L276 241L279 241L276 240M280 240L280 241L287 241L280 240z"/>
<path style="fill:#f5696a; stroke:none;" d="M304 240L302 241L301 242C299.945 245.869 294.923 249.435 299 253C298.886 260.572 306.53 259.031 312 260L315 275L310 278L309 275L308 277L307 277L307 270C301.288 270.02 297.633 270.433 299 277L297 276L297 277L300 277L301 278L300 280L317.816 278.721L326 275L322 260L320 258C316.458 259.181 311.204 259.184 312 256C306.732 257.054 306.512 245.128 310 246C310.531 240.857 314.296 244.212 314 248L324 251L325 244L304 240z"/>
<path style="fill:#f69390; stroke:none;" d="M306 240L307 241L306 240M308 240L308 241L312 241L308 240M314 240L315 241L314 240M316.667 240.333L317.333 240.667L316.667 240.333z"/>
<path style="fill:#f5696a; stroke:none;" d="M331 240L332 241L331 240z"/>
<path style="fill:#f69390; stroke:none;" d="M332 240L331 280L343 281C343 274.15 341.509 266.947 347 262L347 261L341 264L342 279C323.315 278.934 335.615 251.751 332 240z"/>
<path style="fill:#f5696a; stroke:none;" d="M333 240L332 267L333.028 277.397L342 279L341 264C350.404 259.559 348.329 272.716 348 279L358 279L358 241L348 240L344 260L343 260L341 241L333 240z"/>
<path style="fill:#f69390; stroke:none;" d="M334 240L334 241L341 241L342 258L343 258L342 240L334 240M349 240L349 241L358 241L358 279L348 279L348 280L359 281L359 240L349 240z"/>
<path style="fill:#f5696a; stroke:none;" d="M373 247L371 246L367 249L366 250L367 279L376 279C375.748 275.092 373.95 268.236 379 268L382 264L383 279L392 279L392 242L390 240C382.546 240.041 375.531 238.709 373 247z"/>
<path style="fill:#f69390; stroke:none;" d="M378.667 240.333L379.333 240.667L378.667 240.333M382 240L383 241L382 240M400 240L415 254L400 240z"/>
<path style="fill:#0951a6; stroke:none;" d="M402 240L403 241L402 240z"/>
<path style="fill:#f69390; stroke:none;" d="M417 240L417 243L418 243L419 240L417 240z"/>
<path style="fill:#f5696a; stroke:none;" d="M418 243L417 241L416 241C416 248.498 416.613 252.433 422 258L400 242L401 279L410 279L411 255L416 257L416 280L417 280L417 277L418 277L427 279L428 242C424.286 242.133 419.946 236.986 418 243z"/>
<path style="fill:#f69390; stroke:none;" d="M424 240L424 241L427 243L424 240z"/>
<path style="fill:#06bbfe; stroke:none;" d="M9 241L10 242L9 241z"/>
<path style="fill:#f69390; stroke:none;" d="M14.3333 241.667L14.6667 242.333L14.3333 241.667M27 241L30 243L27 241z"/>
<path style="fill:#0951a6; stroke:none;" d="M29 241L30 242L29 241z"/>
<path style="fill:#f5696a; stroke:none;" d="M108 241L109 242L108 241z"/>
<path style="fill:#f69390; stroke:none;" d="M156 241L154 252L157 253L156 241z"/>
<path style="fill:#0951a6; stroke:none;" d="M159.333 241.667L159.667 242.333L159.333 241.667z"/>
<path style="fill:#f69390; stroke:none;" d="M178.333 241.667L178.667 242.333L178.333 241.667M188 241L189 279C184.513 278.984 181.488 279.056 179 275L178 275L178 280L190 281L190 252L188 241z"/>
<path style="fill:#06bbfe; stroke:none;" d="M202 241L203 242L202 241z"/>
<path style="fill:#f69390; stroke:none;" d="M206 241L205 244L206 241M219 241L222 243L219 241z"/>
<path style="fill:#0951a6; stroke:none;" d="M221 241L222 242L221 241z"/>
<path style="fill:#f69390; stroke:none;" d="M230.333 241.667L230.667 242.333L230.333 241.667M251.667 241.333L252.333 241.667L251.667 241.333M274.333 241.667L274.667 242.333L274.333 241.667M287 241L287 242L291 244L287 241M303 241L304 242L303 241M319 241L321 243L319 241z"/>
<path style="fill:#f5696a; stroke:none;" d="M342.333 241.667L342.667 242.333L342.333 241.667z"/>
<path style="fill:#06bbfe; stroke:none;" d="M371 241L372 242L371 241z"/>
<path style="fill:#f69390; stroke:none;" d="M376 241L375 243L376 241M389 241L391 243L391 241L389 241z"/>
<path style="fill:#f5696a; stroke:none;" d="M403 241L404 242L403 241z"/>
<path style="fill:#f69390; stroke:none;" d="M18 242L16 245L18 242M20.3333 242.667L20.6667 243.333L20.3333 242.667z"/>
<path style="fill:#f5696a; stroke:none;" d="M39 242L39 279L50 279L50 256C53.0339 258.118 55.7629 259.207 57 255L61 255C63.8739 265.81 58.3423 278.989 73 279L74 242L54.4244 254.269L39 242M42 242L43 243L42 242M69 242L70 243L69 242z"/>
<path style="fill:#0951a6; stroke:none;" d="M157 242L158 243L157 242M201 242L202 243L201 242z"/>
<path style="fill:#f69390; stroke:none;" d="M210 242L208 245L210 242M212.333 242.667L212.667 243.333L212.333 242.667M253 242L253 244L255 244L253 242M278 242L276 245L278 242M280 242L280 261L281 261C282.579 255.66 283.483 246.598 280 242z"/>
<path style="fill:#06bbfe; stroke:none;" d="M298 242L299 243L298 242z"/>
<path style="fill:#f69390; stroke:none;" d="M302 242L303 243L302 242M311 242L309 245L311 242M348 242L349 243L348 242z"/>
<path style="fill:#0951a6; stroke:none;" d="M371 242L372 243L371 242z"/>
<path style="fill:#f69390; stroke:none;" d="M381 242L382 243L381 242z"/>
<path style="fill:#f5696a; stroke:none;" d="M404 242L405 243L404 242z"/>
<path style="fill:#0951a6; stroke:none;" d="M18 243L17 246C19.1579 245.022 19.5007 244.812 18 243z"/>
<path style="fill:#030303; stroke:none;" d="M19 243L20 244L19 243z"/>
<path style="fill:#f69390; stroke:none;" d="M30 243L31 244L30 243z"/>
<path style="fill:#f5696a; stroke:none;" d="M43 243L44 244L43 243M68 243L69 244L68 243z"/>
<path style="fill:#f69390; stroke:none;" d="M132.333 243.667L132.667 244.333L132.333 243.667z"/>
<path style="fill:#0951a6; stroke:none;" d="M133 243L132 250L136 248L136 247L135 243L133 243z"/>
<path style="fill:#f69390; stroke:none;" d="M146 243L146 279L137 279L137 264L136 264L136 280L147 281C147 270.089 150.211 253.036 146 243z"/>
<path style="fill:#0951a6; stroke:none;" d="M147 243L148 244L147 243z"/>
<path style="fill:#030303; stroke:none;" d="M148 243L147 247L148 247L148 243z"/>
<path style="fill:#f5696a; stroke:none;" d="M157.333 243.667L157.667 244.333L157.333 243.667M190.333 243.667L190.667 244.333L190.333 243.667z"/>
<path style="fill:#030303; stroke:none;" d="M210 243L211 246L208 245L207 262C212.774 259.581 214.873 247.258 210 243z"/>
<path style="fill:#f69390; stroke:none;" d="M222 243L223 244L222 243M240 243L240 258L241 258L240 243z"/>
<path style="fill:#030303; stroke:none;" d="M242 243L243 244L242 243z"/>
<path style="fill:#0951a6; stroke:none;" d="M243 243L241 246L245 245L245 244L243 243z"/>
<path style="fill:#f69390; stroke:none;" d="M245 243L245 245L247 245L245 243M273 243L274 244L273 243z"/>
<path style="fill:#030303; stroke:none;" d="M278 243L279 244L278 243z"/>
<path style="fill:#0951a6; stroke:none;" d="M279 243L278 250L279 250L281 244L279 243z"/>
<path style="fill:#f69390; stroke:none;" d="M301 243L302 244L301 243z"/>
<path style="fill:#030303; stroke:none;" d="M312 243L313 244L312 243z"/>
<path style="fill:#0951a6; stroke:none;" d="M313 243L311 246L313 243z"/>
<path style="fill:#f69390; stroke:none;" d="M322 243L324 245L324 243L322 243z"/>
<path style="fill:#0951a6; stroke:none;" d="M359 243L360 244L359 243z"/>
<path style="fill:#f69390; stroke:none;" d="M374 243L375 244L374 243M378 243L378 245L380 243L378 243z"/>
<path style="fill:#0951a6; stroke:none;" d="M378 246L382 243L378 246z"/>
<path style="fill:#f69390; stroke:none;" d="M391 243L392 279L383 279L383 271L382 271L382 280L393 281L393 254L391 243z"/>
<path style="fill:#f5696a; stroke:none;" d="M405 243L406 244L405 243M17 244L18 245L17 244M44 244L45 245L44 244M67 244L68 245L67 244z"/>
<path style="fill:#0951a6; stroke:none;" d="M161 244L162 245L161 244M199 244L200 245L199 244z"/>
<path style="fill:#f69390; stroke:none;" d="M204 244L205 245L204 244z"/>
<path style="fill:#f5696a; stroke:none;" d="M209 244L210 245L209 244z"/>
<path style="fill:#0951a6; stroke:none;" d="M210.333 244.667L210.667 245.333L210.333 244.667z"/>
<path style="fill:#f69390; stroke:none;" d="M255 244L257 247L255 244z"/>
<path style="fill:#f5696a; stroke:none;" d="M267 244L268 245L267 244z"/>
<path style="fill:#0951a6; stroke:none;" d="M268 244L269 245L268 244z"/>
<path style="fill:#f69390; stroke:none;" d="M272 244L273 245L272 244z"/>
<path style="fill:#f5696a; stroke:none;" d="M277 244L278 245L277 244z"/>
<path style="fill:#f69390; stroke:none;" d="M300 244L301 245L300 244M373 244L374 245L373 244z"/>
<path style="fill:#0951a6; stroke:none;" d="M406 244L407 245L406 244M10 245L11 246L10 245z"/>
<path style="fill:#f69390; stroke:none;" d="M11 245L12 246L11 245z"/>
<path style="fill:#030303; stroke:none;" d="M16 245L15 262C21.8957 259.111 20 251.368 20 245L16 245z"/>
<path style="fill:#f5696a; stroke:none;" d="M45 245L46 246L45 245M66 245L67 246L66 245z"/>
<path style="fill:#030303; stroke:none;" d="M134 245L135 246L134 245z"/>
<path style="fill:#0951a6; stroke:none;" d="M157 245L158 246L157 245M190 245L191 246L190 245z"/>
<path style="fill:#f69390; stroke:none;" d="M203 245L204 246L203 245M206 245L206 262L207 262L206 245z"/>
<path style="fill:#030303; stroke:none;" d="M242 245L242 260C247.824 256.359 247.475 251.194 246 245L242 245M277 245L276 262C282.355 258.027 281 251.729 281 245L280 245L277 259L277 245z"/>
<path style="fill:#f69390; stroke:none;" d="M291 245L291 279L282 279L282 267L281 267L281 280L293 281L291 245z"/>
<path style="fill:#0951a6; stroke:none;" d="M292.333 245.667L292.667 246.333L292.333 245.667z"/>
<path style="fill:#f69390; stroke:none;" d="M299 245L300 246L299 245M308 245L308 255L309 255L308 245M314 245L315 246L314 245M324 245L324 251L316 247L315 247C317.179 251.359 320.27 252.571 325 253L324 245M372.333 245.667L372.667 246.333L372.333 245.667M376 245C374.745 250.271 372.537 263.265 381 262L381 261L377 262L376 245z"/>
<path style="fill:#030303; stroke:none;" d="M381 245L377 246L377 262C382.896 259.026 383.404 250.729 381 245z"/>
<path style="fill:#0951a6; stroke:none;" d="M393 245L394 246L393 245z"/>
<path style="fill:#f69390; stroke:none;" d="M10 246L11 247L10 246M14 246L14 262L15 262L14 246z"/>
<path style="fill:#0951a6; stroke:none;" d="M15.3333 246.667L15.6667 247.333L15.3333 246.667M32 246L33 247L32 246z"/>
<path style="fill:#f5696a; stroke:none;" d="M46 246L47 247L46 246z"/>
<path style="fill:#0951a6; stroke:none;" d="M49 246L51 248L49 246z"/>
<path style="fill:#f5696a; stroke:none;" d="M61 246L62 247L61 246M65 246L66 247L65 246z"/>
<path style="fill:#0951a6; stroke:none;" d="M148 246L147 251L148 251L148 246z"/>
<path style="fill:#f5696a; stroke:none;" d="M157 246L157 251L158 251L157 246M190 246L190 252L191 252L190 246M197 246L198 247L197 246z"/>
<path style="fill:#f69390; stroke:none;" d="M202 246L203 247L202 246z"/>
<path style="fill:#0951a6; stroke:none;" d="M209 246L209 249L210 249L209 246z"/>
<path style="fill:#f69390; stroke:none;" d="M223 246L223 279L213 278L224 281L223 246z"/>
<path style="fill:#0951a6; stroke:none;" d="M224 246L224 276L225 276L224 246M246 246L247 247L246 246z"/>
<path style="fill:#f69390; stroke:none;" d="M298 246L299 247L298 246z"/>
<path style="fill:#0951a6; stroke:none;" d="M309 246L312 249L309 246M359 246L360 247L359 246z"/>
<path style="fill:#f5696a; stroke:none;" d="M367 246L368 247L367 246z"/>
<path style="fill:#0951a6; stroke:none;" d="M394 246L394 249L395 249L394 246M408 246L409 247L408 246z"/>
<path style="fill:#f69390; stroke:none;" d="M9 247L10 248L9 247z"/>
<path style="fill:#0951a6; stroke:none;" d="M17.3333 247.667L17.6667 248.333L17.3333 247.667z"/>
<path style="fill:#f5696a; stroke:none;" d="M47 247L48 248L47 247M64 247L65 248L64 247z"/>
<path style="fill:#030303; stroke:none;" d="M134 247L135 248L134 247z"/>
<path style="fill:#f69390; stroke:none;" d="M201 247L202 248L201 247M247 247L244 259L244 260C248.543 257.213 248.991 251.745 247 247M257 247C256.995 253.031 256.92 257.919 250 259L250 260C257.898 261.46 259.527 253.023 257 247M275 247L275 250L276 250L275 247z"/>
<path style="fill:#0951a6; stroke:none;" d="M276 247L277 248L276 247z"/>
<path style="fill:#f5696a; stroke:none;" d="M292.333 247.667L292.667 248.333L292.333 247.667z"/>
<path style="fill:#f69390; stroke:none;" d="M370 247L371 248L370 247z"/>
<path style="fill:#0951a6; stroke:none;" d="M379 247L380 248L379 247z"/>
<path style="fill:#f69390; stroke:none;" d="M8 248L9 249L8 248M51 248L52 249L51 248M151 248L152 249L151 248M200 248L201 249L200 248M269 248L270 249L269 248M298 248L299 249L298 248z"/>
<path style="fill:#0951a6; stroke:none;" d="M359 248L359 281L360 281L359 248z"/>
<path style="fill:#f69390; stroke:none;" d="M369 248L370 249L369 248M400 248L400 255L401 255L400 248M427 248L427 254L428 254L427 248M4 253L8 249L4 253z"/>
<path style="fill:#0951a6; stroke:none;" d="M32 249L33 250L32 249M52 249L53 250L52 249M74 249L74 266L75 266L74 249z"/>
<path style="fill:#f69390; stroke:none;" d="M126.333 249.667L126.667 250.333L126.333 249.667M130 249L127 251L127 252L130 249M152 249L154 251L154 249L152 249z"/>
<path style="fill:#0951a6; stroke:none;" d="M159 249L159 252L160 252L159 249z"/>
<path style="fill:#f69390; stroke:none;" d="M162 249L163 250L162 249M196 252L200 249L196 252M230 249L230 280L242 280L242 279L231 279L230 249z"/>
<path style="fill:#f5696a; stroke:none;" d="M244.333 249.667L244.667 250.333L244.333 249.667z"/>
<path style="fill:#f69390; stroke:none;" d="M267 249L268 250L267 249z"/>
<path style="fill:#0951a6; stroke:none;" d="M292 249L293 250L292 249z"/>
<path style="fill:#f69390; stroke:none;" d="M368 249L369 250L368 249z"/>
<path style="fill:#06bbfe; stroke:none;" d="M53 250L54 251L53 250z"/>
<path style="fill:#0951a6; stroke:none;" d="M131 250L132 251L131 250z"/>
<path style="fill:#f5696a; stroke:none;" d="M176 250L177 251L176 250z"/>
<path style="fill:#f69390; stroke:none;" d="M265 250L265 252L267 250L265 250z"/>
<path style="fill:#06bbfe; stroke:none;" d="M278 250L279 251L278 250z"/>
<path style="fill:#f5696a; stroke:none;" d="M292 250L293 251L292 250z"/>
<path style="fill:#0951a6; stroke:none;" d="M316 250L317 251L316 250z"/>
<path style="fill:#f69390; stroke:none;" d="M367 250L368 251L367 250z"/>
<path style="fill:#f5696a; stroke:none;" d="M376 250L376 257L377 257L376 250z"/>
<path style="fill:#0951a6; stroke:none;" d="M412 250L413 251L412 250M32 251L33 252L32 251M130 251L131 252L130 251M244.333 251.667L244.667 252.333L244.333 251.667z"/>
<path style="fill:#f69390; stroke:none;" d="M275 251L276 252L275 251z"/>
<path style="fill:#0951a6; stroke:none;" d="M278 251L277 259L278 259L278 251M292 251L292 269L293 269L292 251z"/>
<path style="fill:#f5696a; stroke:none;" d="M317 251L318 252L317 251z"/>
<path style="fill:#f69390; stroke:none;" d="M365 251L365 280L377 281L378 267L375 268L376 279L367 279L367 251L365 251z"/>
<path style="fill:#0951a6; stroke:none;" d="M393 251L393 277L394 277L393 251z"/>
<path style="fill:#f5696a; stroke:none;" d="M413 251L414 252L413 251z"/>
<path style="fill:#f69390; stroke:none;" d="M417 251L419 253L417 251M73 252L73 273L74 273L73 252z"/>
<path style="fill:#f5696a; stroke:none;" d="M128.667 252.333L129.333 252.667L128.667 252.333z"/>
<path style="fill:#0951a6; stroke:none;" d="M157 252L158 253L157 252M190 252L190 263L191 263L190 252M309.333 252.667L309.667 253.333L309.333 252.667z"/>
<path style="fill:#f5696a; stroke:none;" d="M320 252L321 253L320 252z"/>
<path style="fill:#f69390; stroke:none;" d="M382 252L382 259L383 259L382 252z"/>
<path style="fill:#0951a6; stroke:none;" d="M397 252L398 253L397 252M414 252L415 253L414 252z"/>
<path style="fill:#f5696a; stroke:none;" d="M53 253L54 254L53 253z"/>
<path style="fill:#0951a6; stroke:none;" d="M173 253L174 254L173 253z"/>
<path style="fill:#f69390; stroke:none;" d="M298 253L299 254L298 253z"/>
<path style="fill:#0951a6; stroke:none;" d="M415 253L416 254L415 253z"/>
<path style="fill:#f5696a; stroke:none;" d="M54 254L55 255L54 254z"/>
<path style="fill:#0951a6; stroke:none;" d="M56 254L57 255L56 254M175.667 254.333L176.333 254.667L175.667 254.333M276.333 254.667L276.667 255.333L276.333 254.667z"/>
<path style="fill:#f5696a; stroke:none;" d="M327 254L328 255L327 254z"/>
<path style="fill:#0951a6; stroke:none;" d="M397 254L398 255L397 254M416 254L417 255L416 254z"/>
<path style="fill:#f69390; stroke:none;" d="M4 255L5 256L4 255M49 255L48 258L49 258L49 255M51 255L52 256L51 255M57 255L54 258L57 261L61 255L57 255M299 255L303 259L299 255z"/>
<path style="fill:#0951a6; stroke:none;" d="M310 255L311 256L310 255z"/>
<path style="fill:#f69390; stroke:none;" d="M411 255L412 256L411 255z"/>
<path style="fill:#0951a6; stroke:none;" d="M417 255L418 256L417 255M15 256L15 260L16 260L15 256M32 256L32 279L33 279L32 256M50.3333 256.667L50.6667 257.333L50.3333 256.667M60.6667 256.333L61.3333 256.667L60.6667 256.333M175.333 256.667L175.667 257.333L175.333 256.667z"/>
<path style="fill:#f69390; stroke:none;" d="M178 256L179 257L178 256z"/>
<path style="fill:#0951a6; stroke:none;" d="M207.333 256.667L207.667 257.333L207.333 256.667z"/>
<path style="fill:#f69390; stroke:none;" d="M274 256L274 261L275 261L274 256M310 256L311 257L310 256z"/>
<path style="fill:#f5696a; stroke:none;" d="M314 256L315 257L314 256z"/>
<path style="fill:#f69390; stroke:none;" d="M347 256L345 259L347 256z"/>
<path style="fill:#0951a6; stroke:none;" d="M397 256L397 265L398 265L397 256z"/>
<path style="fill:#f69390; stroke:none;" d="M410 256L410 279L401 279L401 263L400 263L400 280L411 281L410 256z"/>
<path style="fill:#0951a6; stroke:none;" d="M412 256L412 259L413 259L412 256M418 256L419 257L418 256z"/>
<path style="fill:#f69390; stroke:none;" d="M427 256L427 279L418 277L417 277C417.982 281.581 424.116 280 428 280L427 256M4 257L5 258L4 257z"/>
<path style="fill:#f5696a; stroke:none;" d="M59 257L60 258L59 257z"/>
<path style="fill:#0951a6; stroke:none;" d="M173 257L174 258L173 257z"/>
<path style="fill:#f69390; stroke:none;" d="M176.333 257.667L176.667 258.333L176.333 257.667M196 257L196 260L197 260L196 257z"/>
<path style="fill:#f5696a; stroke:none;" d="M246 257L247 258L246 257z"/>
<path style="fill:#0951a6; stroke:none;" d="M258 257L259 258L258 257z"/>
<path style="fill:#f69390; stroke:none;" d="M311.667 257.333L312.333 257.667L311.667 257.333z"/>
<path style="fill:#0951a6; stroke:none;" d="M377 257L378 258L377 257z"/>
<path style="fill:#f69390; stroke:none;" d="M415 257L416 258L415 257M417.333 257.667L417.667 258.333L417.333 257.667M20 258L21 259L20 258M38 258L38 280L50 280L50 279L39 279L38 258z"/>
<path style="fill:#f5696a; stroke:none;" d="M58 258L59 259L58 258z"/>
<path style="fill:#f69390; stroke:none;" d="M97 258L97 278L98 278L97 258M212 258L212 261L213 261L212 258z"/>
<path style="fill:#f5696a; stroke:none;" d="M244 258L245 259L244 258z"/>
<path style="fill:#0951a6; stroke:none;" d="M257 258L258 259L257 258z"/>
<path style="fill:#f5696a; stroke:none;" d="M278 258L279 259L278 258z"/>
<path style="fill:#f69390; stroke:none;" d="M314 258L314 259L319 259L314 258z"/>
<path style="fill:#0951a6; stroke:none;" d="M343 258L344 259L343 258M415 258L416 259L415 258z"/>
<path style="fill:#f69390; stroke:none;" d="M4 259L5 260L4 259M49.3333 259.667L49.6667 260.333L49.3333 259.667z"/>
<path style="fill:#0951a6; stroke:none;" d="M51 259L52 260L51 259M57 259L58 260L57 259z"/>
<path style="fill:#f69390; stroke:none;" d="M173.667 259.333L174.333 259.667L173.667 259.333z"/>
<path style="fill:#0951a6; stroke:none;" d="M207 259L208 260L207 259M256 259L257 260L256 259z"/>
<path style="fill:#f69390; stroke:none;" d="M264 259L264 271L265 271L264 259z"/>
<path style="fill:#f5696a; stroke:none;" d="M280 259L281 260L280 259z"/>
<path style="fill:#f69390; stroke:none;" d="M303 259L303 260L312 261L312 260L303 259M319 259L321 261L321 259L319 259M343 259L344 260L343 259M20 260L21 261L20 260z"/>
<path style="fill:#f5696a; stroke:none;" d="M55 260L56 261L55 260M57 260L58 261L57 260z"/>
<path style="fill:#f69390; stroke:none;" d="M62 260L63 261L62 260M176 260L177 261L176 260M243 260L243 263L244 263L243 260z"/>
<path style="fill:#f5696a; stroke:none;" d="M254.667 260.333L255.333 260.667L254.667 260.333z"/>
<path style="fill:#0951a6; stroke:none;" d="M276 260L277 261L276 260z"/>
<path style="fill:#f5696a; stroke:none;" d="M304 260L305 261L304 260z"/>
<path style="fill:#f69390; stroke:none;" d="M416 260L417 261L416 260M18 261L19 262L18 261M31 261L31 270L32 270L31 261M175 261C171.09 266.436 172 272.557 172 279L163 277L162 277C163.423 281.859 168.795 280.586 173 281L175 261z"/>
<path style="fill:#f5696a; stroke:none;" d="M209 261L210 262L209 261z"/>
<path style="fill:#f69390; stroke:none;" d="M210 261L211 262L210 261z"/>
<path style="fill:#f5696a; stroke:none;" d="M277 261L278 262L277 261z"/>
<path style="fill:#f69390; stroke:none;" d="M278 261L279 262L278 261z"/>
<path style="fill:#0951a6; stroke:none;" d="M310 261L311 262L310 261z"/>
<path style="fill:#f69390; stroke:none;" d="M321 261L325 274L326 274C325.996 268.545 326.333 263.798 321 261M4 262L5 263L4 262M15 262L16 263L15 262M48 262L48 271L49 271L48 262z"/>
<path style="fill:#030303; stroke:none;" d="M176 262L175 264L176 262z"/>
<path style="fill:#f69390; stroke:none;" d="M207 262L208 263L207 262M209 262L210 263L209 262M249 262L250 263L249 262z"/>
<path style="fill:#0951a6; stroke:none;" d="M250 262L251 263L250 262M258 262L259 263L258 262z"/>
<path style="fill:#f69390; stroke:none;" d="M277 262L278 263L277 262z"/>
<path style="fill:#0951a6; stroke:none;" d="M311 262L312 263L311 262z"/>
<path style="fill:#f69390; stroke:none;" d="M313 262L314 263L313 262z"/>
<path style="fill:#0951a6; stroke:none;" d="M346.667 262.333L347.333 262.667L346.667 262.333M176 263L177 264L176 263z"/>
<path style="fill:#f69390; stroke:none;" d="M178 263L178 267L179 267L178 263z"/>
<path style="fill:#f5696a; stroke:none;" d="M190 263L191 264L190 263z"/>
<path style="fill:#f69390; stroke:none;" d="M241 263L241 272L242 272L241 263z"/>
<path style="fill:#030303; stroke:none;" d="M242 263L243 264L242 263z"/>
<path style="fill:#0951a6; stroke:none;" d="M242 265L245 265L244 263L242 265z"/>
<path style="fill:#f69390; stroke:none;" d="M252 263L252 264L257 267L252 263z"/>
<path style="fill:#f5696a; stroke:none;" d="M344 263L345 264L344 263z"/>
<path style="fill:#f69390; stroke:none;" d="M17.3333 264.667L17.6667 265.333L17.3333 264.667z"/>
<path style="fill:#0951a6; stroke:none;" d="M19 264L18 267L19 264M173 264L173 265L176 266L173 264M190 264L190 276L191 276L190 264z"/>
<path style="fill:#f69390; stroke:none;" d="M209 264C205.999 268.76 204.731 273.421 206 279L197 279L197 275L196 275L196 280L207 281L209 264z"/>
<path style="fill:#0951a6; stroke:none;" d="M211 264L209 267C211.251 266.527 212.118 266.14 211 264z"/>
<path style="fill:#f69390; stroke:none;" d="M245 264L246 265L245 264M277 264L277 266L279 264L277 264z"/>
<path style="fill:#f5696a; stroke:none;" d="M325 264L326 265L325 264z"/>
<path style="fill:#0951a6; stroke:none;" d="M345 264L346 265L345 264z"/>
<path style="fill:#f69390; stroke:none;" d="M381 264L382 265L381 264M4 265L5 266L4 265M246 265L248 267L246 265z"/>
<path style="fill:#0951a6; stroke:none;" d="M278 265L278 270L279 267L280 267L280 269L281 269L278 265z"/>
<path style="fill:#030303; stroke:none;" d="M279 265L280 266L279 265z"/>
<path style="fill:#f69390; stroke:none;" d="M379 265L378 267L379 265z"/>
<path style="fill:#0951a6; stroke:none;" d="M380 265L379 269L382 265L380 265z"/>
<path style="fill:#f69390; stroke:none;" d="M20 266L20 272L21 272L20 266M62 266L62 273L63 273L62 266M212 266L212 274L213 274L212 266z"/>
<path style="fill:#0951a6; stroke:none;" d="M326 266L326 271L327 271L326 266z"/>
<path style="fill:#030303; stroke:none;" d="M380 266L381 267L380 266z"/>
<path style="fill:#f69390; stroke:none;" d="M4.33333 267.667L4.66667 268.333L4.33333 267.667M14 267L14 279L5 279L5 275L4 275L4 280L15 281L14 267M16 267L17 268L16 267M80 267L80 270L81 270L80 267M257 267L257 279L248 279L248 268L247 268L247 280L259 280L257 267z"/>
<path style="fill:#030303; stroke:none;" d="M379 267L380 268L379 267z"/>
<path style="fill:#0951a6; stroke:none;" d="M15.6667 268.333L16.3333 268.667L15.6667 268.333z"/>
<path style="fill:#f5696a; stroke:none;" d="M115.667 268.333L116.333 268.667L115.667 268.333M118 268L118 269L123 270L118 268z"/>
<path style="fill:#0951a6; stroke:none;" d="M207.667 268.333L208.333 268.667L207.667 268.333z"/>
<path style="fill:#f5696a; stroke:none;" d="M298 268L298 269L303 269L298 268z"/>
<path style="fill:#0951a6; stroke:none;" d="M305.667 268.333L306.333 268.667L305.667 268.333z"/>
<path style="fill:#f69390; stroke:none;" d="M314 268L314 275L315 275L314 268z"/>
<path style="fill:#0951a6; stroke:none;" d="M377 268L378 269L377 268M17 269L18 270L17 269z"/>
<path style="fill:#f69390; stroke:none;" d="M114 271L121 270L120 279C126.797 274.098 119.317 264.917 114 271z"/>
<path style="fill:#0951a6; stroke:none;" d="M209 269L210 270L209 269M244 269L245 270L244 269z"/>
<path style="fill:#f5696a; stroke:none;" d="M292 269L292 279L293 279L292 269z"/>
<path style="fill:#f69390; stroke:none;" d="M297 269L298 277L299 277C298.32 270.909 301.515 270.065 307 270L307 277L308 277L308 269L297 269z"/>
<path style="fill:#f5696a; stroke:none;" d="M308 270L308 273L309 273L308 270z"/>
<path style="fill:#f69390; stroke:none;" d="M4.33333 271.667L4.66667 272.333L4.33333 271.667M31 271L32 272L31 271z"/>
<path style="fill:#0951a6; stroke:none;" d="M109 271L109 277L110 277L109 271z"/>
<path style="fill:#f69390; stroke:none;" d="M113 271L114 272L113 271z"/>
<path style="fill:#0951a6; stroke:none;" d="M209 271L210 272L209 271z"/>
<path style="fill:#f69390; stroke:none;" d="M275 271L276 272L275 271z"/>
<path style="fill:#0951a6; stroke:none;" d="M278 271L278 278L279 278L278 271M312 272L313 273L312 272z"/>
<path style="fill:#f69390; stroke:none;" d="M31 274L31 278L32 278L31 274M48 274L48 278L49 278L48 274M62 274C62.556 281.137 68.1993 280.264 74 281L74 274L73 274L73 279C67.6283 278.981 65.2312 278.366 62 274M323 274C317.438 280.85 309.083 279 301 279L301 280C309.925 280 319.165 282.015 325 274L323 274M107.333 275.667L107.667 276.333L107.333 275.667z"/>
<path style="fill:#030303; stroke:none;" d="M110.333 275.667L110.667 276.333L110.333 275.667z"/>
<path style="fill:#f69390; stroke:none;" d="M212 275L212 278L213 278L212 275M264 275L264 280L276 280L276 279L265 279L264 275z"/>
<path style="fill:#0951a6; stroke:none;" d="M309 275L311 277L309 275z"/>
<path style="fill:#f69390; stroke:none;" d="M313 275L312 277L313 275z"/>
<path style="fill:#0951a6; stroke:none;" d="M324 275L322 280L323 280L324 275M74.3333 276.667L74.6667 277.333L74.3333 276.667z"/>
<path style="fill:#f5696a; stroke:none;" d="M190 276L190 279L191 279L190 276z"/>
<path style="fill:#0951a6; stroke:none;" d="M207 276L207 279L208 279L207 276z"/>
<path style="fill:#f5696a; stroke:none;" d="M224 276L224 279L225 279L224 276z"/>
<path style="fill:#f69390; stroke:none;" d="M241 276L242 277L241 276z"/>
<path style="fill:#030303; stroke:none;" d="M309 276L310 277L309 276z"/>
<path style="fill:#f5696a; stroke:none;" d="M323 276L324 277L323 276z"/>
<path style="fill:#f69390; stroke:none;" d="M348.333 276.667L348.667 277.333L348.333 276.667z"/>
<path style="fill:#0951a6; stroke:none;" d="M15.3333 277.667L15.6667 278.333L15.3333 277.667z"/>
<path style="fill:#f69390; stroke:none;" d="M20 277L21 278L20 277z"/>
<path style="fill:#0951a6; stroke:none;" d="M173.333 277.667L173.667 278.333L173.333 277.667z"/>
<path style="fill:#f69390; stroke:none;" d="M240 277L241 278L240 277M274 277L275 278L274 277z"/>
<path style="fill:#0951a6; stroke:none;" d="M276 277L277 278L276 277z"/>
<path style="fill:#f69390; stroke:none;" d="M299 277L299 279L301 279L299 277M310 277L311 278L310 277z"/>
<path style="fill:#f5696a; stroke:none;" d="M393 277L394 278L393 277z"/>
<path style="fill:#0951a6; stroke:none;" d="M411 277L412 278L411 277z"/>
<path style="fill:#f69390; stroke:none;" d="M20 279L20 280L32 281L20 279z"/>
<path style="fill:#0951a6; stroke:none;" d="M122 278L123 279L122 278z"/>
<path style="fill:#f5696a; stroke:none;" d="M321 278L322 279L321 278z"/>
<path style="fill:#0951a6; stroke:none;" d="M361 278L362 279L361 278M393 278L393 281L394 281L393 278z"/>
<path style="fill:#f5696a; stroke:none;" d="M62 279L63 280L62 279z"/>
<path style="fill:#f69390; stroke:none;" d="M97 279L97 280L120 280L97 279z"/>
<path style="fill:#0951a6; stroke:none;" d="M190.333 279.667L190.667 280.333L190.333 279.667M224.333 279.667L224.667 280.333L224.333 279.667M320.333 279.667L320.667 280.333L320.333 279.667M397.333 279.667L397.667 280.333L397.333 279.667M1 280L2 281L1 280z"/>
<path style="fill:#f5696a; stroke:none;" d="M5 280L5 281L13 281L5 280M22 280L22 281L31 281L22 280z"/>
<path style="fill:#0951a6; stroke:none;" d="M32 280L33 281L32 280z"/>
<path style="fill:#f5696a; stroke:none;" d="M39 280L39 281L47 281L39 280z"/>
<path style="fill:#0951a6; stroke:none;" d="M49 280L50 281L49 280z"/>
<path style="fill:#f5696a; stroke:none;" d="M64 280L64 281L68 281L64 280M69.6667 280.333L70.3333 280.667L69.6667 280.333M72 280L73 281L72 280M81 280L81 281L89 281L81 280z"/>
<path style="fill:#0951a6; stroke:none;" d="M95 280L96 281L95 280M97 280L98 281L97 280z"/>
<path style="fill:#f5696a; stroke:none;" d="M98 280L98 281L120 281L98 280z"/>
<path style="fill:#0951a6; stroke:none;" d="M120 280L121 281L120 280z"/>
<path style="fill:#f5696a; stroke:none;" d="M137 280L137 281L145 281L137 280z"/>
<path style="fill:#0951a6; stroke:none;" d="M147 280L148 281L147 280z"/>
<path style="fill:#f5696a; stroke:none;" d="M163.667 280.333L164.333 280.667L163.667 280.333M167 280L168 281L167 280M170 280L171 281L170 280z"/>
<path style="fill:#0951a6; stroke:none;" d="M173 280L174 281L173 280z"/>
<path style="fill:#f5696a; stroke:none;" d="M180.667 280.333L181.333 280.667L180.667 280.333M183 280L184 281L183 280M185.667 280.333L186.333 280.667L185.667 280.333M197.667 280.333L198.333 280.667L197.667 280.333M201 280L201 281L205 281L201 280M214 280L214 281L221 281L214 280M222 280L223 281L222 280M231.667 280.333L232.333 280.667L231.667 280.333z"/>
<path style="fill:#0951a6; stroke:none;" d="M241 280L242 281L241 280z"/>
<path style="fill:#f5696a; stroke:none;" d="M248.667 280.333L249.333 280.667L248.667 280.333M253.667 280.333L254.333 280.667L253.667 280.333M256 280L257 281L256 280z"/>
<path style="fill:#0951a6; stroke:none;" d="M258 280L259 281L258 280z"/>
<path style="fill:#f5696a; stroke:none;" d="M265 280L265 281L274 281L265 280z"/>
<path style="fill:#0951a6; stroke:none;" d="M275 280L276 281L275 280M281 280L282 281L281 280z"/>
<path style="fill:#f5696a; stroke:none;" d="M283 280L283 281L291 281L283 280M302 280L302 281L320 281L302 280z"/>
<path style="fill:#0951a6; stroke:none;" d="M329 280L330 281L329 280z"/>
<path style="fill:#f5696a; stroke:none;" d="M332 280L332 281L335 281L332 280M337 280L337 281L341 281L337 280M349 280L349 281L358 281L349 280z"/>
<path style="fill:#0951a6; stroke:none;" d="M363 280L364 281L363 280M365 280L366 281L365 280z"/>
<path style="fill:#f5696a; stroke:none;" d="M367 280L367 281L375 281L367 280z"/>
<path style="fill:#0951a6; stroke:none;" d="M379 280L380 281L379 280z"/>
<path style="fill:#f5696a; stroke:none;" d="M383 280L383 281L391 281L383 280z"/>
<path style="fill:#0951a6; stroke:none;" d="M400 280L401 281L400 280z"/>
<path style="fill:#f5696a; stroke:none;" d="M401 280L401 281L408 281L401 280z"/>
<path style="fill:#0951a6; stroke:none;" d="M408 280L409 281L408 280z"/>
<path style="fill:#f5696a; stroke:none;" d="M418 280L418 281L427 281L418 280z"/>
<path style="fill:#0951a6; stroke:none;" d="M427 280L428 281L427 280z"/>
</svg>
